<?xml version="1.0" encoding="UTF-8" standalone="no"?>
<!DOCTYPE svg PUBLIC "-//W3C//DTD SVG 1.1//EN"
 "http://www.w3.org/Graphics/SVG/1.1/DTD/svg11.dtd">
<!-- Generated by graphviz version 2.50.0 (0)
 -->
<!-- Pages: 1 -->
<svg width="471pt" height="314pt"
 viewBox="0.00 0.00 471.00 314.00" xmlns="http://www.w3.org/2000/svg" xmlns:xlink="http://www.w3.org/1999/xlink">
<g id="graph0" class="graph" transform="scale(1 1) rotate(0) translate(4 310)">
<polygon fill="#0d1117" stroke="transparent" points="-4,4 -4,-310 467,-310 467,4 -4,4"/>
<g id="clust3" class="cluster">
<title>cluster_child2</title>
<polygon fill="#3fb950" stroke="#3fb950" points="169,-8 169,-98 455,-98 455,-8 169,-8"/>
<text text-anchor="middle" x="312" y="-82.8" font-family="Times New Roman,serif" font-size="14.00" fill="white">Child (Option 2)</text>
<text text-anchor="middle" x="312" y="-67.8" font-family="Times New Roman,serif" font-size="14.00" fill="white">All Threads</text>
</g>
<g id="clust1" class="cluster">
<title>cluster_parent</title>
<polygon fill="#238636" stroke="#238636" points="8,-223 8,-298 315,-298 315,-223 8,-223"/>
<text text-anchor="middle" x="161.5" y="-282.8" font-family="Times New Roman,serif" font-size="14.00" fill="white">Parent Process</text>
</g>
<g id="clust2" class="cluster">
<title>cluster_child1</title>
<polygon fill="#a371f7" stroke="#a371f7" points="33,-8 33,-98 161,-98 161,-8 33,-8"/>
<text text-anchor="middle" x="97" y="-82.8" font-family="Times New Roman,serif" font-size="14.00" fill="white">Child (Option 1)</text>
<text text-anchor="middle" x="97" y="-67.8" font-family="Times New Roman,serif" font-size="14.00" fill="white">Only Calling Thread</text>
</g>
<!-- T1 -->
<g id="node1" class="node">
<title>T1</title>
<path fill="#58a6ff" stroke="black" d="M294.5,-267C294.5,-267 263.5,-267 263.5,-267 257.5,-267 251.5,-261 251.5,-255 251.5,-255 251.5,-243 251.5,-243 251.5,-237 257.5,-231 263.5,-231 263.5,-231 294.5,-231 294.5,-231 300.5,-231 306.5,-237 306.5,-243 306.5,-243 306.5,-255 306.5,-255 306.5,-261 300.5,-267 294.5,-267"/>
<text text-anchor="middle" x="279" y="-246.5" font-family="Arial" font-size="10.00" fill="white">Thread 1</text>
</g>
<!-- T2 -->
<g id="node2" class="node">
<title>T2</title>
<path fill="#f0883e" stroke="black" d="M221.5,-267C221.5,-267 174.5,-267 174.5,-267 168.5,-267 162.5,-261 162.5,-255 162.5,-255 162.5,-243 162.5,-243 162.5,-237 168.5,-231 174.5,-231 174.5,-231 221.5,-231 221.5,-231 227.5,-231 233.5,-237 233.5,-243 233.5,-243 233.5,-255 233.5,-255 233.5,-261 227.5,-267 221.5,-267"/>
<text text-anchor="middle" x="198" y="-252" font-family="Arial" font-size="10.00" fill="white">Thread 2</text>
<text text-anchor="middle" x="198" y="-241" font-family="Arial" font-size="10.00" fill="white">(Calls Fork!)</text>
</g>
<!-- FORK -->
<g id="node5" class="node">
<title>FORK</title>
<path fill="#f85149" stroke="black" d="M187.42,-188.33C187.42,-188.33 152.58,-169.67 152.58,-169.67 147.29,-166.83 147.29,-161.17 152.58,-158.33 152.58,-158.33 187.42,-139.67 187.42,-139.67 192.71,-136.83 203.29,-136.83 208.58,-139.67 208.58,-139.67 243.42,-158.33 243.42,-158.33 248.71,-161.17 248.71,-166.83 243.42,-169.67 243.42,-169.67 208.58,-188.33 208.58,-188.33 203.29,-191.17 192.71,-191.17 187.42,-188.33"/>
<text text-anchor="middle" x="198" y="-167" font-family="Arial" font-size="10.00" fill="white">🍴 fork()</text>
<text text-anchor="middle" x="198" y="-156" font-family="Arial" font-size="10.00" fill="white">???</text>
</g>
<!-- T2&#45;&gt;FORK -->
<g id="edge1" class="edge">
<title>T2&#45;&gt;FORK</title>
<path fill="none" stroke="#8b949e" d="M198,-230.8C198,-223.14 198,-213.78 198,-204.55"/>
<polygon fill="#8b949e" stroke="#8b949e" points="201.5,-204.27 198,-194.27 194.5,-204.27 201.5,-204.27"/>
</g>
<!-- T3 -->
<g id="node3" class="node">
<title>T3</title>
<path fill="#58a6ff" stroke="black" d="M132.5,-267C132.5,-267 101.5,-267 101.5,-267 95.5,-267 89.5,-261 89.5,-255 89.5,-255 89.5,-243 89.5,-243 89.5,-237 95.5,-231 101.5,-231 101.5,-231 132.5,-231 132.5,-231 138.5,-231 144.5,-237 144.5,-243 144.5,-243 144.5,-255 144.5,-255 144.5,-261 138.5,-267 132.5,-267"/>
<text text-anchor="middle" x="117" y="-246.5" font-family="Arial" font-size="10.00" fill="white">Thread 3</text>
</g>
<!-- T4 -->
<g id="node4" class="node">
<title>T4</title>
<path fill="#58a6ff" stroke="black" d="M59.5,-267C59.5,-267 28.5,-267 28.5,-267 22.5,-267 16.5,-261 16.5,-255 16.5,-255 16.5,-243 16.5,-243 16.5,-237 22.5,-231 28.5,-231 28.5,-231 59.5,-231 59.5,-231 65.5,-231 71.5,-237 71.5,-243 71.5,-243 71.5,-255 71.5,-255 71.5,-261 65.5,-267 59.5,-267"/>
<text text-anchor="middle" x="44" y="-246.5" font-family="Arial" font-size="10.00" fill="white">Thread 4</text>
</g>
<!-- T2_copy -->
<g id="node6" class="node">
<title>T2_copy</title>
<path fill="#f0883e" stroke="black" d="M140.5,-52C140.5,-52 109.5,-52 109.5,-52 103.5,-52 97.5,-46 97.5,-40 97.5,-40 97.5,-28 97.5,-28 97.5,-22 103.5,-16 109.5,-16 109.5,-16 140.5,-16 140.5,-16 146.5,-16 152.5,-22 152.5,-28 152.5,-28 152.5,-40 152.5,-40 152.5,-46 146.5,-52 140.5,-52"/>
<text text-anchor="middle" x="125" y="-37" font-family="Arial" font-size="10.00" fill="white">Thread 2</text>
<text text-anchor="middle" x="125" y="-26" font-family="Arial" font-size="10.00" fill="white">(Copy)</text>
</g>
<!-- FORK&#45;&gt;T2_copy -->
<g id="edge2" class="edge">
<title>FORK&#45;&gt;T2_copy</title>
<path fill="none" stroke="#8b949e" d="M185.28,-140.7C172.59,-118.45 153.1,-84.27 139.74,-60.84"/>
<polygon fill="#8b949e" stroke="#8b949e" points="142.76,-59.08 134.77,-52.13 136.68,-62.55 142.76,-59.08"/>
<text text-anchor="middle" x="189.5" y="-108.8" font-family="Arial" font-size="9.00">Version 1</text>
</g>
<!-- T2_c -->
<g id="node8" class="node">
<title>T2_c</title>
<path fill="#f0883e" stroke="black" d="M363,-52C363,-52 333,-52 333,-52 327,-52 321,-46 321,-40 321,-40 321,-28 321,-28 321,-22 327,-16 333,-16 333,-16 363,-16 363,-16 369,-16 375,-22 375,-28 375,-28 375,-40 375,-40 375,-46 369,-52 363,-52"/>
<text text-anchor="middle" x="348" y="-31.5" font-family="Arial" font-size="10.00" fill="white">T2</text>
</g>
<!-- FORK&#45;&gt;T2_c -->
<g id="edge3" class="edge">
<title>FORK&#45;&gt;T2_c</title>
<path fill="none" stroke="#8b949e" d="M229.26,-150.67C254,-139.71 288.23,-121.75 312,-98 322.41,-87.6 330.81,-73.58 336.87,-61.41"/>
<polygon fill="#8b949e" stroke="#8b949e" points="340.14,-62.68 341.23,-52.14 333.81,-59.7 340.14,-62.68"/>
<text text-anchor="middle" x="320.5" y="-108.8" font-family="Arial" font-size="9.00">Version 2</text>
</g>
<!-- T1_c -->
<g id="node7" class="node">
<title>T1_c</title>
<path fill="#58a6ff" stroke="black" d="M435,-52C435,-52 405,-52 405,-52 399,-52 393,-46 393,-40 393,-40 393,-28 393,-28 393,-22 399,-16 405,-16 405,-16 435,-16 435,-16 441,-16 447,-22 447,-28 447,-28 447,-40 447,-40 447,-46 441,-52 435,-52"/>
<text text-anchor="middle" x="420" y="-31.5" font-family="Arial" font-size="10.00" fill="white">T1</text>
</g>
<!-- T3_c -->
<g id="node9" class="node">
<title>T3_c</title>
<path fill="#58a6ff" stroke="black" d="M291,-52C291,-52 261,-52 261,-52 255,-52 249,-46 249,-40 249,-40 249,-28 249,-28 249,-22 255,-16 261,-16 261,-16 291,-16 291,-16 297,-16 303,-22 303,-28 303,-28 303,-40 303,-40 303,-46 297,-52 291,-52"/>
<text text-anchor="middle" x="276" y="-31.5" font-family="Arial" font-size="10.00" fill="white">T3</text>
</g>
<!-- T4_c -->
<g id="node10" class="node">
<title>T4_c</title>
<path fill="#58a6ff" stroke="black" d="M219,-52C219,-52 189,-52 189,-52 183,-52 177,-46 177,-40 177,-40 177,-28 177,-28 177,-22 183,-16 189,-16 189,-16 219,-16 219,-16 225,-16 231,-22 231,-28 231,-28 231,-40 231,-40 231,-46 225,-52 219,-52"/>
<text text-anchor="middle" x="204" y="-31.5" font-family="Arial" font-size="10.00" fill="white">T4</text>
</g>
</g>
</svg>
