<?xml version="1.0" encoding="UTF-8" standalone="no"?>
<!DOCTYPE svg PUBLIC "-//W3C//DTD SVG 1.1//EN"
 "http://www.w3.org/Graphics/SVG/1.1/DTD/svg11.dtd">
<!-- Generated by graphviz version 2.50.0 (0)
 -->
<!-- Pages: 1 -->
<svg width="478pt" height="373pt"
 viewBox="0.00 0.00 478.00 373.00" xmlns="http://www.w3.org/2000/svg" xmlns:xlink="http://www.w3.org/1999/xlink">
<g id="graph0" class="graph" transform="scale(1 1) rotate(0) translate(4 369)">
<polygon fill="#0d1117" stroke="transparent" points="-4,4 -4,-369 474,-369 474,4 -4,4"/>
<text text-anchor="middle" x="235" y="-7.8" font-family="Times New Roman,serif" font-size="14.00" fill="#3fb950">3 Forks = 2³ = 8 Processes!</text>
<!-- P1 -->
<g id="node1" class="node">
<title>P1</title>
<ellipse fill="#238636" stroke="black" cx="246.5" cy="-343.5" rx="21.5" ry="21.5"/>
<text text-anchor="middle" x="246.5" y="-340.7" font-family="Arial" font-size="11.00" fill="white">P1</text>
</g>
<!-- P1_1 -->
<g id="node2" class="node">
<title>P1_1</title>
<ellipse fill="#238636" stroke="black" cx="185.5" cy="-254.5" rx="21.5" ry="21.5"/>
<text text-anchor="middle" x="185.5" y="-251.7" font-family="Arial" font-size="11.00" fill="white">P1</text>
</g>
<!-- P1&#45;&gt;P1_1 -->
<g id="edge1" class="edge">
<title>P1&#45;&gt;P1_1</title>
<path fill="none" stroke="#58a6ff" d="M234.45,-325.31C225.59,-312.68 213.41,-295.31 203.42,-281.05"/>
<polygon fill="#58a6ff" stroke="#58a6ff" points="206.13,-278.83 197.53,-272.65 200.4,-282.85 206.13,-278.83"/>
<text text-anchor="middle" x="229" y="-296.8" font-family="Arial" font-size="9.00">fork 1</text>
</g>
<!-- P2 -->
<g id="node3" class="node">
<title>P2</title>
<ellipse fill="#58a6ff" stroke="black" cx="307.5" cy="-254.5" rx="21.5" ry="21.5"/>
<text text-anchor="middle" x="307.5" y="-251.7" font-family="Arial" font-size="11.00" fill="white">P2</text>
</g>
<!-- P1&#45;&gt;P2 -->
<g id="edge2" class="edge">
<title>P1&#45;&gt;P2</title>
<path fill="none" stroke="#58a6ff" d="M258.55,-325.31C267.41,-312.68 279.59,-295.31 289.58,-281.05"/>
<polygon fill="#58a6ff" stroke="#58a6ff" points="292.6,-282.85 295.47,-272.65 286.87,-278.83 292.6,-282.85"/>
<text text-anchor="middle" x="290" y="-296.8" font-family="Arial" font-size="9.00">fork 1</text>
</g>
<!-- P1_2 -->
<g id="node4" class="node">
<title>P1_2</title>
<ellipse fill="#238636" stroke="black" cx="82.5" cy="-165.5" rx="21.5" ry="21.5"/>
<text text-anchor="middle" x="82.5" y="-162.7" font-family="Arial" font-size="11.00" fill="white">P1</text>
</g>
<!-- P1_1&#45;&gt;P1_2 -->
<g id="edge3" class="edge">
<title>P1_1&#45;&gt;P1_2</title>
<path fill="none" stroke="#58a6ff" d="M169.41,-239.91C152.47,-225.6 125.65,-202.94 106.28,-186.58"/>
<polygon fill="#58a6ff" stroke="#58a6ff" points="108.38,-183.78 98.48,-180 103.86,-189.12 108.38,-183.78"/>
<text text-anchor="middle" x="148" y="-207.8" font-family="Arial" font-size="9.00">fork 2</text>
</g>
<!-- P3 -->
<g id="node5" class="node">
<title>P3</title>
<ellipse fill="#a371f7" stroke="black" cx="185.5" cy="-165.5" rx="21.5" ry="21.5"/>
<text text-anchor="middle" x="185.5" y="-162.7" font-family="Arial" font-size="11.00" fill="white">P3</text>
</g>
<!-- P1_1&#45;&gt;P3 -->
<g id="edge4" class="edge">
<title>P1_1&#45;&gt;P3</title>
<path fill="none" stroke="#58a6ff" d="M185.5,-232.88C185.5,-222.34 185.5,-209.29 185.5,-197.56"/>
<polygon fill="#58a6ff" stroke="#58a6ff" points="189,-197.27 185.5,-187.27 182,-197.27 189,-197.27"/>
<text text-anchor="middle" x="197" y="-207.8" font-family="Arial" font-size="9.00">fork 2</text>
</g>
<!-- P2_1 -->
<g id="node6" class="node">
<title>P2_1</title>
<ellipse fill="#58a6ff" stroke="black" cx="307.5" cy="-165.5" rx="21.5" ry="21.5"/>
<text text-anchor="middle" x="307.5" y="-162.7" font-family="Arial" font-size="11.00" fill="white">P2</text>
</g>
<!-- P2&#45;&gt;P2_1 -->
<g id="edge5" class="edge">
<title>P2&#45;&gt;P2_1</title>
<path fill="none" stroke="#58a6ff" d="M307.5,-232.88C307.5,-222.34 307.5,-209.29 307.5,-197.56"/>
<polygon fill="#58a6ff" stroke="#58a6ff" points="311,-197.27 307.5,-187.27 304,-197.27 311,-197.27"/>
<text text-anchor="middle" x="319" y="-207.8" font-family="Arial" font-size="9.00">fork 2</text>
</g>
<!-- P4 -->
<g id="node7" class="node">
<title>P4</title>
<ellipse fill="#a371f7" stroke="black" cx="387.5" cy="-165.5" rx="21.5" ry="21.5"/>
<text text-anchor="middle" x="387.5" y="-162.7" font-family="Arial" font-size="11.00" fill="white">P4</text>
</g>
<!-- P2&#45;&gt;P4 -->
<g id="edge6" class="edge">
<title>P2&#45;&gt;P4</title>
<path fill="none" stroke="#58a6ff" d="M321.8,-237.95C334.2,-224.46 352.32,-204.76 366.38,-189.46"/>
<polygon fill="#58a6ff" stroke="#58a6ff" points="369.13,-191.65 373.32,-181.92 363.98,-186.91 369.13,-191.65"/>
<text text-anchor="middle" x="361" y="-207.8" font-family="Arial" font-size="9.00">fork 2</text>
</g>
<!-- P1_3 -->
<g id="node8" class="node">
<title>P1_3</title>
<ellipse fill="#238636" stroke="black" cx="21.5" cy="-76.5" rx="21.5" ry="21.5"/>
<text text-anchor="middle" x="21.5" y="-73.7" font-family="Arial" font-size="11.00" fill="white">P1</text>
</g>
<!-- P1_2&#45;&gt;P1_3 -->
<g id="edge7" class="edge">
<title>P1_2&#45;&gt;P1_3</title>
<path fill="none" stroke="#58a6ff" d="M70.45,-147.31C61.59,-134.68 49.41,-117.31 39.42,-103.05"/>
<polygon fill="#58a6ff" stroke="#58a6ff" points="42.13,-100.83 33.53,-94.65 36.4,-104.85 42.13,-100.83"/>
<text text-anchor="middle" x="66" y="-118.8" font-family="Arial" font-size="9.00">fork 3</text>
</g>
<!-- P5 -->
<g id="node9" class="node">
<title>P5</title>
<ellipse fill="#f0883e" stroke="black" cx="82.5" cy="-76.5" rx="21.5" ry="21.5"/>
<text text-anchor="middle" x="82.5" y="-73.7" font-family="Arial" font-size="11.00" fill="white">P5</text>
</g>
<!-- P1_2&#45;&gt;P5 -->
<g id="edge8" class="edge">
<title>P1_2&#45;&gt;P5</title>
<path fill="none" stroke="#58a6ff" d="M82.5,-143.88C82.5,-133.34 82.5,-120.29 82.5,-108.56"/>
<polygon fill="#58a6ff" stroke="#58a6ff" points="86,-108.27 82.5,-98.27 79,-108.27 86,-108.27"/>
<text text-anchor="middle" x="94" y="-118.8" font-family="Arial" font-size="9.00">fork 3</text>
</g>
<!-- P3_1 -->
<g id="node10" class="node">
<title>P3_1</title>
<ellipse fill="#a371f7" stroke="black" cx="143.5" cy="-76.5" rx="21.5" ry="21.5"/>
<text text-anchor="middle" x="143.5" y="-73.7" font-family="Arial" font-size="11.00" fill="white">P3</text>
</g>
<!-- P3&#45;&gt;P3_1 -->
<g id="edge9" class="edge">
<title>P3&#45;&gt;P3_1</title>
<path fill="none" stroke="#58a6ff" d="M176.16,-145.73C173.07,-139.47 169.62,-132.44 166.5,-126 163.34,-119.46 159.97,-112.41 156.81,-105.76"/>
<polygon fill="#58a6ff" stroke="#58a6ff" points="159.83,-103.96 152.39,-96.42 153.5,-106.96 159.83,-103.96"/>
<text text-anchor="middle" x="178" y="-118.8" font-family="Arial" font-size="9.00">fork 3</text>
</g>
<!-- P8 -->
<g id="node11" class="node">
<title>P8</title>
<ellipse fill="#f0883e" stroke="black" cx="204.5" cy="-76.5" rx="21.5" ry="21.5"/>
<text text-anchor="middle" x="204.5" y="-73.7" font-family="Arial" font-size="11.00" fill="white">P8</text>
</g>
<!-- P3&#45;&gt;P8 -->
<g id="edge10" class="edge">
<title>P3&#45;&gt;P8</title>
<path fill="none" stroke="#58a6ff" d="M189.91,-144.32C192.3,-133.34 195.32,-119.55 197.98,-107.35"/>
<polygon fill="#58a6ff" stroke="#58a6ff" points="201.4,-108.09 200.12,-97.57 194.56,-106.59 201.4,-108.09"/>
<text text-anchor="middle" x="207" y="-118.8" font-family="Arial" font-size="9.00">fork 3</text>
</g>
<!-- P2_2 -->
<g id="node12" class="node">
<title>P2_2</title>
<ellipse fill="#58a6ff" stroke="black" cx="265.5" cy="-76.5" rx="21.5" ry="21.5"/>
<text text-anchor="middle" x="265.5" y="-73.7" font-family="Arial" font-size="11.00" fill="white">P2</text>
</g>
<!-- P2_1&#45;&gt;P2_2 -->
<g id="edge11" class="edge">
<title>P2_1&#45;&gt;P2_2</title>
<path fill="none" stroke="#58a6ff" d="M298.16,-145.73C295.07,-139.47 291.62,-132.44 288.5,-126 285.34,-119.46 281.97,-112.41 278.81,-105.76"/>
<polygon fill="#58a6ff" stroke="#58a6ff" points="281.83,-103.96 274.39,-96.42 275.5,-106.96 281.83,-103.96"/>
<text text-anchor="middle" x="300" y="-118.8" font-family="Arial" font-size="9.00">fork 3</text>
</g>
<!-- P6 -->
<g id="node13" class="node">
<title>P6</title>
<ellipse fill="#f0883e" stroke="black" cx="326.5" cy="-76.5" rx="21.5" ry="21.5"/>
<text text-anchor="middle" x="326.5" y="-73.7" font-family="Arial" font-size="11.00" fill="white">P6</text>
</g>
<!-- P2_1&#45;&gt;P6 -->
<g id="edge12" class="edge">
<title>P2_1&#45;&gt;P6</title>
<path fill="none" stroke="#58a6ff" d="M311.91,-144.32C314.3,-133.34 317.32,-119.55 319.98,-107.35"/>
<polygon fill="#58a6ff" stroke="#58a6ff" points="323.4,-108.09 322.12,-97.57 316.56,-106.59 323.4,-108.09"/>
<text text-anchor="middle" x="329" y="-118.8" font-family="Arial" font-size="9.00">fork 3</text>
</g>
<!-- P4_1 -->
<g id="node14" class="node">
<title>P4_1</title>
<ellipse fill="#a371f7" stroke="black" cx="387.5" cy="-76.5" rx="21.5" ry="21.5"/>
<text text-anchor="middle" x="387.5" y="-73.7" font-family="Arial" font-size="11.00" fill="white">P4</text>
</g>
<!-- P4&#45;&gt;P4_1 -->
<g id="edge13" class="edge">
<title>P4&#45;&gt;P4_1</title>
<path fill="none" stroke="#58a6ff" d="M387.5,-143.88C387.5,-133.34 387.5,-120.29 387.5,-108.56"/>
<polygon fill="#58a6ff" stroke="#58a6ff" points="391,-108.27 387.5,-98.27 384,-108.27 391,-108.27"/>
<text text-anchor="middle" x="399" y="-118.8" font-family="Arial" font-size="9.00">fork 3</text>
</g>
<!-- P7 -->
<g id="node15" class="node">
<title>P7</title>
<ellipse fill="#f0883e" stroke="black" cx="448.5" cy="-76.5" rx="21.5" ry="21.5"/>
<text text-anchor="middle" x="448.5" y="-73.7" font-family="Arial" font-size="11.00" fill="white">P7</text>
</g>
<!-- P4&#45;&gt;P7 -->
<g id="edge14" class="edge">
<title>P4&#45;&gt;P7</title>
<path fill="none" stroke="#58a6ff" d="M399.55,-147.31C408.41,-134.68 420.59,-117.31 430.58,-103.05"/>
<polygon fill="#58a6ff" stroke="#58a6ff" points="433.6,-104.85 436.47,-94.65 427.87,-100.83 433.6,-104.85"/>
<text text-anchor="middle" x="431" y="-118.8" font-family="Arial" font-size="9.00">fork 3</text>
</g>
</g>
</svg>
