<?xml version="1.0" encoding="UTF-8" standalone="no"?>
<!DOCTYPE svg PUBLIC "-//W3C//DTD SVG 1.1//EN"
 "http://www.w3.org/Graphics/SVG/1.1/DTD/svg11.dtd">
<!-- Generated by graphviz version 2.50.0 (0)
 -->
<!-- Pages: 1 -->
<svg width="356pt" height="280pt"
 viewBox="0.00 0.00 356.00 280.08" xmlns="http://www.w3.org/2000/svg" xmlns:xlink="http://www.w3.org/1999/xlink">
<g id="graph0" class="graph" transform="scale(1 1) rotate(0) translate(4 276.08)">
<polygon fill="#0d1117" stroke="transparent" points="-4,4 -4,-276.08 352,-276.08 352,4 -4,4"/>
<!-- P1 -->
<g id="node1" class="node">
<title>P1</title>
<path fill="#238636" stroke="black" d="M205,-272.08C205,-272.08 90,-272.08 90,-272.08 84,-272.08 78,-266.08 78,-260.08 78,-260.08 78,-223.08 78,-223.08 78,-217.08 84,-211.08 90,-211.08 90,-211.08 205,-211.08 205,-211.08 211,-211.08 217,-217.08 217,-223.08 217,-223.08 217,-260.08 217,-260.08 217,-266.08 211,-272.08 205,-272.08"/>
<text text-anchor="middle" x="147.5" y="-258.48" font-family="Arial" font-size="12.00" fill="white">Parent Process</text>
<text text-anchor="middle" x="147.5" y="-245.48" font-family="Arial" font-size="12.00" fill="white">(PID: 5824)</text>
<text text-anchor="middle" x="147.5" y="-218.48" font-family="Arial" font-size="12.00" fill="white">&quot;Hello Neso Academy&quot;</text>
</g>
<!-- FORK -->
<g id="node2" class="node">
<title>FORK</title>
<ellipse fill="#f0883e" stroke="black" cx="147.5" cy="-136.04" rx="57.05" ry="24.08"/>
<text text-anchor="middle" x="147.5" y="-139.44" font-family="Arial" font-size="12.00" fill="white">🍴 fork()</text>
<text text-anchor="middle" x="147.5" y="-126.44" font-family="Arial" font-size="12.00" fill="white">System Call</text>
</g>
<!-- P1&#45;&gt;FORK -->
<g id="edge1" class="edge">
<title>P1&#45;&gt;FORK</title>
<path fill="none" stroke="#8b949e" d="M147.5,-210.91C147.5,-198.18 147.5,-183.25 147.5,-170.16"/>
<polygon fill="#8b949e" stroke="#8b949e" points="151,-170.14 147.5,-160.14 144,-170.14 151,-170.14"/>
<text text-anchor="middle" x="161.5" y="-181.88" font-family="Arial" font-size="14.00" fill="#c9d1d9">calls</text>
</g>
<!-- P1_after -->
<g id="node3" class="node">
<title>P1_after</title>
<path fill="#238636" stroke="black" d="M127,-61C127,-61 12,-61 12,-61 6,-61 0,-55 0,-49 0,-49 0,-12 0,-12 0,-6 6,0 12,0 12,0 127,0 127,0 133,0 139,-6 139,-12 139,-12 139,-49 139,-49 139,-55 133,-61 127,-61"/>
<text text-anchor="middle" x="69.5" y="-47.4" font-family="Arial" font-size="12.00" fill="white">Parent Process</text>
<text text-anchor="middle" x="69.5" y="-34.4" font-family="Arial" font-size="12.00" fill="white">(PID: 5837)</text>
<text text-anchor="middle" x="69.5" y="-7.4" font-family="Arial" font-size="12.00" fill="white">&quot;Hello Neso Academy&quot;</text>
</g>
<!-- FORK&#45;&gt;P1_after -->
<g id="edge2" class="edge">
<title>FORK&#45;&gt;P1_after</title>
<path fill="none" stroke="#8b949e" d="M130.77,-112.83C121.26,-100.21 109.1,-84.07 98.13,-69.5"/>
<polygon fill="#8b949e" stroke="#8b949e" points="100.64,-67.03 91.83,-61.14 95.05,-71.24 100.64,-67.03"/>
<text text-anchor="middle" x="144.5" y="-82.8" font-family="Arial" font-size="14.00" fill="#c9d1d9">continues</text>
</g>
<!-- C1 -->
<g id="node4" class="node">
<title>C1</title>
<path fill="#58a6ff" stroke="black" d="M284,-61C284,-61 169,-61 169,-61 163,-61 157,-55 157,-49 157,-49 157,-12 157,-12 157,-6 163,0 169,0 169,0 284,0 284,0 290,0 296,-6 296,-12 296,-12 296,-49 296,-49 296,-55 290,-61 284,-61"/>
<text text-anchor="middle" x="226.5" y="-47.4" font-family="Arial" font-size="12.00" fill="white">Child Process</text>
<text text-anchor="middle" x="226.5" y="-34.4" font-family="Arial" font-size="12.00" fill="white">(PID: 5838)</text>
<text text-anchor="middle" x="226.5" y="-7.4" font-family="Arial" font-size="12.00" fill="white">&quot;Hello Neso Academy&quot;</text>
</g>
<!-- FORK&#45;&gt;C1 -->
<g id="edge3" class="edge">
<title>FORK&#45;&gt;C1</title>
<path fill="none" stroke="#8b949e" d="M164.45,-112.83C174.16,-100.09 186.62,-83.77 197.82,-69.09"/>
<polygon fill="#8b949e" stroke="#8b949e" points="200.6,-71.22 203.88,-61.14 195.03,-66.97 200.6,-71.22"/>
<text text-anchor="middle" x="244.5" y="-82.8" font-family="Arial" font-size="14.00" fill="#c9d1d9">creates (duplicate)</text>
</g>
<!-- legend -->
<g id="node5" class="node">
<title>legend</title>
<polygon fill="#161b22" stroke="black" points="342,-259.58 235,-259.58 235,-223.58 348,-223.58 348,-253.58 342,-259.58"/>
<polyline fill="none" stroke="black" points="342,-259.58 342,-253.58 "/>
<polyline fill="none" stroke="black" points="348,-253.58 342,-253.58 "/>
<text text-anchor="middle" x="291.5" y="-244.98" font-family="Arial" font-size="12.00" fill="#c9d1d9">Same Content ✅</text>
<text text-anchor="middle" x="291.5" y="-231.98" font-family="Arial" font-size="12.00" fill="#c9d1d9">Different PID ✅</text>
</g>
</g>
</svg>
