<?xml version="1.0" encoding="UTF-8" standalone="no"?>
<!DOCTYPE svg PUBLIC "-//W3C//DTD SVG 1.1//EN"
 "http://www.w3.org/Graphics/SVG/1.1/DTD/svg11.dtd">
<!-- Generated by graphviz version 2.50.0 (0)
 -->
<!-- Pages: 1 -->
<svg width="261pt" height="318pt"
 viewBox="0.00 0.00 260.50 318.25" xmlns="http://www.w3.org/2000/svg" xmlns:xlink="http://www.w3.org/1999/xlink">
<g id="graph0" class="graph" transform="scale(1 1) rotate(0) translate(4 314.25)">
<polygon fill="#0d1117" stroke="transparent" points="-4,4 -4,-314.25 256.5,-314.25 256.5,4 -4,4"/>
<!-- START -->
<g id="node1" class="node">
<title>START</title>
<ellipse fill="#238636" stroke="black" cx="125" cy="-287.63" rx="53.07" ry="22.76"/>
<text text-anchor="middle" x="125" y="-290.83" font-family="Arial" font-size="11.00" fill="white">Thread calls</text>
<text text-anchor="middle" x="125" y="-278.83" font-family="Arial" font-size="11.00" fill="white">fork()</text>
</g>
<!-- Q1 -->
<g id="node2" class="node">
<title>Q1</title>
<polygon fill="#f0883e" stroke="black" points="125,-228 0,-196 125,-164 250,-196 125,-228"/>
<text text-anchor="middle" x="125" y="-199.2" font-family="Arial" font-size="11.00" fill="white">Will exec() be called</text>
<text text-anchor="middle" x="125" y="-187.2" font-family="Arial" font-size="11.00" fill="white">immediately after fork?</text>
</g>
<!-- START&#45;&gt;Q1 -->
<g id="edge1" class="edge">
<title>START&#45;&gt;Q1</title>
<path fill="none" stroke="#c9d1d9" d="M125,-264.93C125,-256.95 125,-247.62 125,-238.48"/>
<polygon fill="#c9d1d9" stroke="#c9d1d9" points="128.5,-238.32 125,-228.32 121.5,-238.32 128.5,-238.32"/>
</g>
<!-- YES -->
<g id="node3" class="node">
<title>YES</title>
<path fill="#58a6ff" stroke="black" d="M107,-117C107,-117 37,-117 37,-117 31,-117 25,-111 25,-105 25,-105 25,-93 25,-93 25,-87 31,-81 37,-81 37,-81 107,-81 107,-81 113,-81 119,-87 119,-93 119,-93 119,-105 119,-105 119,-111 113,-117 107,-117"/>
<text text-anchor="middle" x="72" y="-102.2" font-family="Arial" font-size="11.00" fill="white">Duplicate ONLY</text>
<text text-anchor="middle" x="72" y="-90.2" font-family="Arial" font-size="11.00" fill="white">Calling Thread</text>
</g>
<!-- Q1&#45;&gt;YES -->
<g id="edge2" class="edge">
<title>Q1&#45;&gt;YES</title>
<path fill="none" stroke="#c9d1d9" d="M109.81,-167.78C102.48,-154.63 93.72,-138.93 86.48,-125.95"/>
<polygon fill="#c9d1d9" stroke="#c9d1d9" points="89.45,-124.09 81.52,-117.06 83.33,-127.5 89.45,-124.09"/>
<text text-anchor="middle" x="107.5" y="-138" font-family="Arial" font-size="10.00">YES</text>
</g>
<!-- NO -->
<g id="node5" class="node">
<title>NO</title>
<path fill="#a371f7" stroke="black" d="M220.5,-117C220.5,-117 161.5,-117 161.5,-117 155.5,-117 149.5,-111 149.5,-105 149.5,-105 149.5,-93 149.5,-93 149.5,-87 155.5,-81 161.5,-81 161.5,-81 220.5,-81 220.5,-81 226.5,-81 232.5,-87 232.5,-93 232.5,-93 232.5,-105 232.5,-105 232.5,-111 226.5,-117 220.5,-117"/>
<text text-anchor="middle" x="191" y="-102.2" font-family="Arial" font-size="11.00" fill="white">Duplicate ALL</text>
<text text-anchor="middle" x="191" y="-90.2" font-family="Arial" font-size="11.00" fill="white">Threads</text>
</g>
<!-- Q1&#45;&gt;NO -->
<g id="edge3" class="edge">
<title>Q1&#45;&gt;NO</title>
<path fill="none" stroke="#c9d1d9" d="M143.38,-168.54C152.77,-155.03 164.13,-138.67 173.41,-125.32"/>
<polygon fill="#c9d1d9" stroke="#c9d1d9" points="176.32,-127.26 179.16,-117.05 170.58,-123.26 176.32,-127.26"/>
<text text-anchor="middle" x="174" y="-138" font-family="Arial" font-size="10.00">NO</text>
</g>
<!-- WHY1 -->
<g id="node4" class="node">
<title>WHY1</title>
<polygon fill="#161b22" stroke="black" points="117.5,-44 8.5,-44 8.5,0 123.5,0 123.5,-38 117.5,-44"/>
<polyline fill="none" stroke="black" points="117.5,-44 117.5,-38 "/>
<polyline fill="none" stroke="black" points="123.5,-38 117.5,-38 "/>
<text text-anchor="middle" x="66" y="-31.2" font-family="Arial" font-size="11.00" fill="#3fb950">✅ Saves resources</text>
<text text-anchor="middle" x="66" y="-19.2" font-family="Arial" font-size="11.00" fill="#3fb950">✅ Threads will be</text>
<text text-anchor="middle" x="66" y="-7.2" font-family="Arial" font-size="11.00" fill="#3fb950">replaced anyway</text>
</g>
<!-- YES&#45;&gt;WHY1 -->
<g id="edge4" class="edge">
<title>YES&#45;&gt;WHY1</title>
<path fill="none" stroke="#c9d1d9" stroke-dasharray="5,2" d="M70.64,-80.98C70.01,-73.07 69.23,-63.4 68.5,-54.24"/>
<polygon fill="#c9d1d9" stroke="#c9d1d9" points="71.99,-53.93 67.7,-44.24 65.01,-54.49 71.99,-53.93"/>
</g>
<!-- WHY2 -->
<g id="node6" class="node">
<title>WHY2</title>
<polygon fill="#161b22" stroke="black" points="246.5,-44 141.5,-44 141.5,0 252.5,0 252.5,-38 246.5,-44"/>
<polyline fill="none" stroke="black" points="246.5,-44 246.5,-38 "/>
<polyline fill="none" stroke="black" points="252.5,-38 246.5,-38 "/>
<text text-anchor="middle" x="197" y="-31.2" font-family="Arial" font-size="11.00" fill="#3fb950">✅ Child needs all</text>
<text text-anchor="middle" x="197" y="-19.2" font-family="Arial" font-size="11.00" fill="#3fb950">threads to work</text>
<text text-anchor="middle" x="197" y="-7.2" font-family="Arial" font-size="11.00" fill="#3fb950">✅ No replacement</text>
</g>
<!-- NO&#45;&gt;WHY2 -->
<g id="edge5" class="edge">
<title>NO&#45;&gt;WHY2</title>
<path fill="none" stroke="#c9d1d9" stroke-dasharray="5,2" d="M192.36,-80.98C192.99,-73.07 193.77,-63.4 194.5,-54.24"/>
<polygon fill="#c9d1d9" stroke="#c9d1d9" points="197.99,-54.49 195.3,-44.24 191.01,-53.93 197.99,-54.49"/>
</g>
</g>
</svg>
